<svg width="16" height="16" viewBox="0 0 16 16" fill="none" xmlns="http://www.w3.org/2000/svg">
<g clip-path="url(#clip0_589_6263)">
<path d="M8 0C3.6 0 0 3.6 0 8C0 12.4 3.6 16 8 16C12.4 16 16 12.4 16 8C16 3.6 12.4 0 8 0ZM12 8.5C12 8.776 11.776 9 11.5 9H9V11.5C9 11.776 8.776 12 8.5 12H7.5C7.224 12 7 11.776 7 11.5V9H4.5C4.224 9 4 8.776 4 8.5V7.5C4 7.224 4.224 7 4.5 7H7V4.5C7 4.224 7.224 4 7.5 4H8.5C8.776 4 9 4.224 9 4.5V7H11.5C11.776 7 12 7.224 12 7.5V8.5Z" fill="#4E4E4E"/>
</g>
<defs>
<clipPath id="clip0_589_6263">
<rect width="16" height="16" fill="white"/>
</clipPath>
</defs>
</svg>
