<svg width="16" height="16" viewBox="0 0 16 16" fill="none" xmlns="http://www.w3.org/2000/svg">
<path d="M5.60001 16C5.16001 16 4.80001 15.64 4.80001 15.2V12.8H1.6C0.720002 12.8 0 12.08 0 11.2V1.59997C0 0.711963 0.720002 -3.95457e-05 1.6 -3.95457e-05H14.4C15.28 -3.95457e-05 16 0.719963 16 1.59997V11.2C16 12.08 15.28 12.8 14.4 12.8H9.52002L6.56002 15.768C6.40002 15.92 6.20002 16 6.00001 16H5.60001ZM12 7.19998V5.59997H10.4V7.19998H12ZM8.80002 7.19998V5.59997H7.20002V7.19998H8.80002ZM5.60001 7.19998V5.59997H4.00001V7.19998H5.60001Z" fill="#2F4396"/>
</svg>
