<svg width="16" height="16" viewBox="0 0 16 16" fill="none" xmlns="http://www.w3.org/2000/svg">
<path d="M11.2083 8.29167C11.2083 8.36458 11.178 8.4375 11.1172 8.51042L8.20964 11.418C8.14279 11.4727 8.07292 11.5 8 11.5C7.92708 11.5 7.85721 11.4727 7.79036 11.418L4.8737 8.5013C4.78255 8.40408 4.76128 8.29774 4.8099 8.18229C4.85851 8.06076 4.94965 8 5.08333 8H6.83333V4.79167C6.83333 4.7066 6.86068 4.63672 6.91536 4.58203C6.97005 4.52734 7.03993 4.5 7.125 4.5H8.875C8.96007 4.5 9.02995 4.52734 9.08464 4.58203C9.13932 4.63672 9.16667 4.7066 9.16667 4.79167V8H10.9167C11.0017 8 11.0716 8.02734 11.1263 8.08203C11.181 8.13672 11.2083 8.2066 11.2083 8.29167ZM8 3.04167C7.10069 3.04167 6.27127 3.26345 5.51172 3.70703C4.75217 4.15061 4.15061 4.75217 3.70703 5.51172C3.26345 6.27127 3.04167 7.10069 3.04167 8C3.04167 8.89931 3.26345 9.72873 3.70703 10.4883C4.15061 11.2478 4.75217 11.8494 5.51172 12.293C6.27127 12.7365 7.10069 12.9583 8 12.9583C8.89931 12.9583 9.72873 12.7365 10.4883 12.293C11.2478 11.8494 11.8494 11.2478 12.293 10.4883C12.7365 9.72873 12.9583 8.89931 12.9583 8C12.9583 7.10069 12.7365 6.27127 12.293 5.51172C11.8494 4.75217 11.2478 4.15061 10.4883 3.70703C9.72873 3.26345 8.89931 3.04167 8 3.04167ZM15 8C15 9.26997 14.6871 10.4412 14.0612 11.5137C13.4353 12.5862 12.5862 13.4353 11.5137 14.0612C10.4412 14.6871 9.26997 15 8 15C6.73003 15 5.55881 14.6871 4.48633 14.0612C3.41385 13.4353 2.56467 12.5862 1.9388 11.5137C1.31293 10.4412 1 9.26997 1 8C1 6.73003 1.31293 5.55881 1.9388 4.48633C2.56467 3.41385 3.41385 2.56467 4.48633 1.9388C5.55881 1.31293 6.73003 1 8 1C9.26997 1 10.4412 1.31293 11.5137 1.9388C12.5862 2.56467 13.4353 3.41385 14.0612 4.48633C14.6871 5.55881 15 6.73003 15 8Z" fill="#4E4E4E"/>
</svg>
