<svg width="12" height="12" viewBox="0 0 12 12" fill="none" xmlns="http://www.w3.org/2000/svg">
<g clip-path="url(#clip0_589_6149)">
<path d="M11.5 11H0.5C0.367392 11 0.240215 11.0527 0.146447 11.1464C0.0526784 11.2402 0 11.3674 0 11.5C0 11.6326 0.0526784 11.7598 0.146447 11.8536C0.240215 11.9473 0.367392 12 0.5 12H11.5C11.6326 12 11.7598 11.9473 11.8536 11.8536C11.9473 11.7598 12 11.6326 12 11.5C12 11.3674 11.9473 11.2402 11.8536 11.1464C11.7598 11.0527 11.6326 11 11.5 11Z" fill="#2F4396"/>
<path d="M1.49822 10.0009C1.55197 10.0011 1.60538 9.99235 1.65622 9.97489L4.65622 8.97489C4.73142 8.95122 4.79995 8.9101 4.85622 8.85489L10.8562 2.85489C10.9028 2.80845 10.9397 2.75327 10.9649 2.69253C10.9901 2.63178 11.0031 2.56666 11.0031 2.50089C11.0031 2.43513 10.9901 2.37001 10.9649 2.30926C10.9397 2.24851 10.9028 2.19334 10.8562 2.14689L8.85622 0.146894C8.80978 0.100331 8.7546 0.0633877 8.69386 0.0381813C8.63311 0.0129748 8.56799 0 8.50222 0C8.43646 0 8.37134 0.0129748 8.31059 0.0381813C8.24985 0.0633877 8.19467 0.100331 8.14822 0.146894L2.14822 6.14689C2.09302 6.20317 2.0519 6.2717 2.02822 6.34689L1.02822 9.34689C1.00408 9.42146 0.9978 9.50067 1.0099 9.57811C1.022 9.65555 1.05214 9.72907 1.09788 9.79272C1.14362 9.85637 1.20369 9.90837 1.27323 9.94454C1.34278 9.9807 1.41985 10 1.49822 10.0009Z" fill="#2F4396"/>
</g>
<defs>
<clipPath id="clip0_589_6149">
<rect width="12" height="12" fill="white"/>
</clipPath>
</defs>
</svg>
