<svg width="16" height="16" viewBox="0 0 16 16" fill="none" xmlns="http://www.w3.org/2000/svg">
<path d="M7.99961 12.815C10.8886 12.815 13.1357 10.3273 14.0987 8.88274C14.4999 8.32099 14.4999 7.59873 14.0987 7.03697C13.1357 5.67271 10.8886 3.18494 7.99961 3.18494C5.11058 3.18494 2.86356 5.67271 1.90055 7.11723C1.4993 7.67898 1.4993 8.40124 1.90055 8.88274C2.86356 10.3273 5.11058 12.815 7.99961 12.815ZM7.99961 5.59246C9.36387 5.59246 10.4071 6.63572 10.4071 7.99998C10.4071 9.36425 9.36387 10.4075 7.99961 10.4075C6.63535 10.4075 5.59209 9.36425 5.59209 7.99998C5.59209 6.63572 6.63535 5.59246 7.99961 5.59246Z" fill="#4E4E4E"/>
</svg>
