<svg width="24" height="24" viewBox="0 0 24 24" fill="none" xmlns="http://www.w3.org/2000/svg">
<path d="M7 6V4H4V1C4 0.448 3.552 0 3 0C2.448 0 2 0.448 2 1V21C2 21.552 2.448 22 3 22H7V20H4V14H7V12H4V6H7Z" fill="#FFDA2D"/>
<path d="M21 8H10C9.448 8 9 7.552 9 7V3C9 2.448 9.448 2 10 2H21C21.552 2 22 2.448 22 3V7C22 7.552 21.552 8 21 8Z" fill="#FFDA2D"/>
<path d="M21 24H10C9.448 24 9 23.553 9 23V19C9 18.447 9.448 18 10 18H21C21.552 18 22 18.447 22 19V23C22 23.553 21.552 24 21 24Z" fill="#FFDA2D"/>
<path d="M21 16H10C9.448 16 9 15.553 9 15V11C9 10.448 9.448 10 10 10H21C21.552 10 22 10.448 22 11V15C22 15.553 21.552 16 21 16Z" fill="#FFDA2D"/>
</svg>
