<svg width="12" height="13" viewBox="0 0 12 13" fill="none" xmlns="http://www.w3.org/2000/svg">
<path d="M5.9213 0.989872C7.57347 0.973567 8.99086 1.50346 10.1735 2.57955C11.3561 3.65563 11.9648 4.96813 11.9996 6.51705C12.017 8.06596 11.4474 9.39884 10.2909 10.5157C9.13434 11.6325 7.72999 12.2073 6.07782 12.2399C4.42565 12.2562 3.00391 11.7222 1.8126 10.638C0.621298 9.55373 0.0169505 8.23715 -0.000440838 6.68824C-0.0352234 5.13933 0.529994 3.80645 1.69521 2.6896C2.86043 1.57275 4.26912 1.00618 5.9213 0.989872ZM6.59956 2.84857C6.23434 2.84857 5.95173 2.94639 5.75173 3.14205C5.55173 3.3377 5.45173 3.5415 5.45173 3.75346C5.43434 3.98172 5.49956 4.16107 5.64739 4.2915C5.79521 4.42194 6.00825 4.48715 6.28652 4.48715C6.61695 4.48715 6.88217 4.39748 7.08217 4.21813C7.28217 4.03878 7.38217 3.81868 7.38217 3.55781C7.38217 3.08498 7.1213 2.84857 6.59956 2.84857ZM5.03434 10.1122C5.29521 10.1122 5.66043 10.0062 6.12999 9.79422C6.59956 9.58226 7.06043 9.26433 7.5126 8.84042L7.27782 8.54694C6.86043 8.84042 6.54739 8.98715 6.33869 8.98715C6.21695 8.98715 6.19956 8.83226 6.28652 8.52248L6.83434 6.56596C7.06043 5.78335 6.96478 5.39205 6.54739 5.39205C6.28652 5.39205 5.89956 5.51025 5.38652 5.74667C4.87347 5.98308 4.37347 6.28878 3.88652 6.66378L4.09521 6.98172C4.54739 6.70455 4.86912 6.56596 5.06043 6.56596C5.16478 6.56596 5.16478 6.70455 5.06043 6.98172L4.59086 8.84042C4.36478 9.68824 4.5126 10.1122 5.03434 10.1122Z" fill="#FFDA2D"/>
</svg>
