<svg width="24" height="24" viewBox="0 0 24 24" fill="none" xmlns="http://www.w3.org/2000/svg">
<g clip-path="url(#clip0_205_3753)">
<path d="M19.2052 19.894L18.9959 20.0604C17.0755 21.5872 14.6431 22.5 11.9996 22.5C9.35608 22.5 6.9236 21.5873 5.00318 20.0603L4.79395 19.894L4.82105 19.8472C6.241 17.3972 8.92723 15.75 11.9995 15.75C15.0719 15.75 17.7581 17.3972 19.1781 19.8472L19.2052 19.894Z" fill="#FFDA2D"/>
<path fill-rule="evenodd" clip-rule="evenodd" d="M19.875 9.75V0H18.375V9.75H19.875Z" fill="#FFDA2D"/>
<path fill-rule="evenodd" clip-rule="evenodd" d="M24 4.125H14.25V5.625H24V4.125Z" fill="#FFDA2D"/>
<path fill-rule="evenodd" clip-rule="evenodd" d="M4.82129 19.8472C6.24124 17.3972 8.9275 15.75 11.9998 15.75C15.0721 15.75 17.7584 17.3972 19.1783 19.8472L17.8806 20.5994C16.7236 18.6032 14.5268 17.25 11.9998 17.25C9.47283 17.25 7.27599 18.6032 6.11907 20.5993L4.82129 19.8472Z" fill="#FFDA2D"/>
<path fill-rule="evenodd" clip-rule="evenodd" d="M0.75 12C0.75 5.7868 5.7868 0.75 12 0.75H12.75V2.25H12C6.61522 2.25 2.25 6.61522 2.25 12C2.25 15.0927 3.6891 17.8488 5.93714 19.6363C7.6017 20.9597 9.70755 21.75 12 21.75C14.2924 21.75 16.3982 20.9597 18.0628 19.6363C20.3109 17.8489 21.75 15.0927 21.75 12V11.25H23.25V12C23.25 15.5693 21.587 18.7506 18.9964 20.8104C17.0759 22.3372 14.6435 23.25 12 23.25C9.35647 23.25 6.92404 22.3372 5.00361 20.8103C2.41306 18.7506 0.75 15.5693 0.75 12Z" fill="#FFDA2D"/>
<path d="M12 14.25C13.864 14.25 15.375 12.739 15.375 10.875C15.375 9.01102 13.864 7.5 12 7.5C10.136 7.5 8.625 9.01102 8.625 10.875C8.625 12.739 10.136 14.25 12 14.25Z" fill="#FFDA2D"/>
</g>
<defs>
<clipPath id="clip0_205_3753">
<rect width="24" height="24" fill="white"/>
</clipPath>
</defs>
</svg>
