<svg width="16" height="16" viewBox="0 0 16 16" fill="none" xmlns="http://www.w3.org/2000/svg">
<g clip-path="url(#clip0_205_4439)">
<path d="M15.7 4.30011L11.7 0.300108C11.612 0.2024 11.5038 0.12497 11.383 0.0731722C11.2621 0.0213746 11.1314 -0.0035547 11 0.000108261H10V3.00011C10 3.26532 9.89464 3.51968 9.70711 3.70722C9.51957 3.89475 9.26522 4.00011 9 4.00011H4C3.73478 4.00011 3.48043 3.89475 3.29289 3.70722C3.10536 3.51968 3 3.26532 3 3.00011V0.000108261H2C1.46957 0.000108261 0.960859 0.210822 0.585786 0.585895C0.210714 0.960967 0 1.46968 0 2.00011L0 14.0001C0 14.5305 0.210714 15.0392 0.585786 15.4143C0.960859 15.7894 1.46957 16.0001 2 16.0001H14C14.5304 16.0001 15.0391 15.7894 15.4142 15.4143C15.7893 15.0392 16 14.5305 16 14.0001V5.00011C16.0037 4.86867 15.9787 4.738 15.9269 4.61714C15.8751 4.49627 15.7977 4.38811 15.7 4.30011ZM13 12.0001C13 12.2653 12.8946 12.5197 12.7071 12.7072C12.5196 12.8948 12.2652 13.0001 12 13.0001H4C3.73478 13.0001 3.48043 12.8948 3.29289 12.7072C3.10536 12.5197 3 12.2653 3 12.0001V10.0001C3 9.73489 3.10536 9.48054 3.29289 9.293C3.48043 9.10547 3.73478 9.00011 4 9.00011H12C12.2652 9.00011 12.5196 9.10547 12.7071 9.293C12.8946 9.48054 13 9.73489 13 10.0001V12.0001Z" fill="#00CA9B"/>
<path d="M9 0H7V3H9V0Z" fill="#00CA9B"/>
</g>
<defs>
<clipPath id="clip0_205_4439">
<rect width="16" height="16" fill="white"/>
</clipPath>
</defs>
</svg>
