<svg width="16" height="16" viewBox="0 0 16 16" fill="none" xmlns="http://www.w3.org/2000/svg">
<path d="M7.99844 14C11.5984 14 14.3984 10.9 15.5984 9.1C16.0984 8.4 16.0984 7.5 15.5984 6.8C14.3984 5.1 11.5984 2 7.99844 2C4.39844 2 1.59844 5.1 0.398438 6.9C-0.101562 7.6 -0.101562 8.5 0.398438 9.1C1.59844 10.9 4.39844 14 7.99844 14ZM7.99844 5C9.69844 5 10.9984 6.3 10.9984 8C10.9984 9.7 9.69844 11 7.99844 11C6.29844 11 4.99844 9.7 4.99844 8C4.99844 6.3 6.29844 5 7.99844 5Z" fill="#2F4396"/>
</svg>
